<svg width="81" height="81" viewBox="0 0 81 81" fill="none" xmlns="http://www.w3.org/2000/svg">
<path d="M40.5 7.59375C27.9229 7.59375 17.7188 17.3058 17.7188 29.2676C17.7188 43.0313 32.9062 64.8427 38.4829 72.3764C38.7144 72.6944 39.0178 72.9531 39.3683 73.1316C39.7189 73.31 40.1067 73.403 40.5 73.403C40.8933 73.403 41.2811 73.31 41.6317 73.1316C41.9822 72.9531 42.2856 72.6944 42.5171 72.3764C48.0938 64.8459 63.2812 43.0423 63.2812 29.2676C63.2812 17.3058 53.0771 7.59375 40.5 7.59375Z" stroke="white" stroke-width="4" stroke-linecap="round" stroke-linejoin="round"/>
<path d="M40.5 37.9688C44.6939 37.9688 48.0938 34.5689 48.0938 30.375C48.0938 26.1811 44.6939 22.7812 40.5 22.7812C36.3061 22.7812 32.9062 26.1811 32.9062 30.375C32.9062 34.5689 36.3061 37.9688 40.5 37.9688Z" stroke="white" stroke-width="4" stroke-linecap="round" stroke-linejoin="round"/>
</svg>
