<svg width="74" height="78" viewBox="0 0 74 78" fill="none" xmlns="http://www.w3.org/2000/svg">
<path d="M65.3145 57.5827C63.2531 55.1982 58.2606 51.7183 55.8383 50.3159C52.6839 48.4918 52.4243 48.3427 49.9449 50.4575C48.2911 51.8688 47.1916 53.1296 45.2561 52.6557C43.3207 52.1818 39.1148 49.5096 35.4321 45.295C31.7493 41.0804 29.2868 36.1117 28.8727 33.897C28.4586 31.6824 29.575 30.435 30.7926 28.5319C32.5087 25.8493 32.3789 25.4022 30.912 21.7807C29.7684 18.964 26.6491 13.2859 24.5643 10.9312C22.3341 8.40213 22.3341 8.84922 20.8971 9.53477C19.7272 10.0999 18.6049 10.7868 17.5441 11.5869C15.4671 13.1712 14.3144 14.4871 13.5083 16.4648C12.7022 18.4424 12.34 23.0788 16.503 31.7614C20.6661 40.444 23.5868 44.8837 29.6321 51.8047C35.6774 58.7258 40.3259 62.4471 47.1215 66.8227C55.5281 72.2281 58.7526 71.1744 60.4804 70.2504C62.2081 69.3264 63.3596 68.015 64.742 65.6304C65.4408 64.4147 66.0405 63.1275 66.5334 61.7854C67.1319 60.1416 67.5213 60.1416 65.3145 57.5827Z" stroke="white" stroke-width="4" stroke-miterlimit="10"/>
</svg>
